<svg width="364" height="49" viewBox="0 0 364 49" fill="none" xmlns="http://www.w3.org/2000/svg">
<path d="M23.216 48.448C18.992 48.448 15.1093 47.4667 11.568 45.504C8.02667 43.4987 5.21067 40.7467 3.12 37.248C1.072 33.7067 0.0480001 29.7173 0.0480001 25.28C0.0480001 20.8427 1.072 16.8747 3.12 13.376C5.21067 9.83467 8.02667 7.08267 11.568 5.12C15.1093 3.15733 18.992 2.176 23.216 2.176C27.4827 2.176 31.3653 3.15733 34.864 5.12C38.4053 7.08267 41.2 9.83467 43.248 13.376C45.296 16.8747 46.32 20.8427 46.32 25.28C46.32 29.7173 45.296 33.7067 43.248 37.248C41.2 40.7467 38.4053 43.4987 34.864 45.504C31.3227 47.4667 27.44 48.448 23.216 48.448ZM23.216 36.8C26.416 36.8 28.9333 35.7547 30.768 33.664C32.6453 31.5733 33.584 28.7787 33.584 25.28C33.584 21.696 32.6453 18.88 30.768 16.832C28.9333 14.7413 26.416 13.696 23.216 13.696C19.9733 13.696 17.4347 14.7413 15.6 16.832C13.7653 18.88 12.848 21.696 12.848 25.28C12.848 28.8213 13.7653 31.6373 15.6 33.728C17.4347 35.776 19.9733 36.8 23.216 36.8ZM75.447 11.776C79.5857 11.776 82.871 13.1627 85.303 15.936C87.735 18.6667 88.951 22.3787 88.951 27.072V48H76.407V28.736C76.407 26.688 75.8737 25.088 74.807 23.936C73.7403 22.7413 72.311 22.144 70.519 22.144C68.6417 22.144 67.1697 22.7413 66.103 23.936C65.0363 25.088 64.503 26.688 64.503 28.736V48H51.959V12.096H64.503V17.216C65.6123 15.5947 67.1057 14.2933 68.983 13.312C70.8603 12.288 73.015 11.776 75.447 11.776Z" fill="#32264D"/>
<path d="M129.818 2.88V12.864H117.786V48H105.242V12.864H93.338V2.88H129.818ZM168.763 29.632C168.763 30.6133 168.699 31.5947 168.571 32.576H144.827C144.955 34.5387 145.488 36.0107 146.427 36.992C147.408 37.9307 148.646 38.4 150.139 38.4C152.23 38.4 153.723 37.4613 154.619 35.584H167.995C167.44 38.0587 166.352 40.2773 164.731 42.24C163.152 44.16 161.147 45.6747 158.715 46.784C156.283 47.8933 153.595 48.448 150.651 48.448C147.11 48.448 143.952 47.7013 141.179 46.208C138.448 44.7147 136.294 42.5813 134.715 39.808C133.179 37.0347 132.411 33.7707 132.411 30.016C132.411 26.2613 133.179 23.0187 134.715 20.288C136.251 17.5147 138.384 15.3813 141.115 13.888C143.888 12.3947 147.067 11.648 150.651 11.648C154.192 11.648 157.328 12.3733 160.059 13.824C162.79 15.2747 164.923 17.3653 166.459 20.096C167.995 22.784 168.763 25.9627 168.763 29.632ZM155.963 26.496C155.963 24.96 155.451 23.7653 154.427 22.912C153.403 22.016 152.123 21.568 150.587 21.568C149.051 21.568 147.792 21.9947 146.811 22.848C145.83 23.6587 145.19 24.8747 144.891 26.496H155.963ZM171.849 30.016C171.849 26.304 172.51 23.0613 173.833 20.288C175.198 17.5147 177.033 15.3813 179.337 13.888C181.683 12.3947 184.286 11.648 187.145 11.648C189.619 11.648 191.753 12.1387 193.545 13.12C195.337 14.1013 196.723 15.424 197.705 17.088V12.096H210.249V48H197.705V43.008C196.723 44.672 195.315 45.9947 193.481 46.976C191.689 47.9573 189.577 48.448 187.145 48.448C184.286 48.448 181.683 47.7013 179.337 46.208C177.033 44.7147 175.198 42.5813 173.833 39.808C172.51 36.992 171.849 33.728 171.849 30.016ZM197.705 30.016C197.705 27.712 197.065 25.8987 195.785 24.576C194.547 23.2533 193.011 22.592 191.177 22.592C189.299 22.592 187.742 23.2533 186.505 24.576C185.267 25.856 184.649 27.6693 184.649 30.016C184.649 32.32 185.267 34.1547 186.505 35.52C187.742 36.8427 189.299 37.504 191.177 37.504C193.011 37.504 194.547 36.8427 195.785 35.52C197.065 34.1973 197.705 32.3627 197.705 30.016ZM215.349 30.016C215.349 26.304 216.117 23.0613 217.653 20.288C219.189 17.5147 221.322 15.3813 224.053 13.888C226.826 12.3947 229.983 11.648 233.525 11.648C238.09 11.648 241.93 12.9067 245.045 15.424C248.159 17.8987 250.165 21.376 251.061 25.856H237.749C236.981 23.5093 235.487 22.336 233.269 22.336C231.69 22.336 230.431 22.9973 229.493 24.32C228.597 25.6 228.149 27.4987 228.149 30.016C228.149 32.5333 228.597 34.4533 229.493 35.776C230.431 37.0987 231.69 37.76 233.269 37.76C235.53 37.76 237.023 36.5867 237.749 34.24H251.061C250.165 38.6773 248.159 42.1547 245.045 44.672C241.93 47.1893 238.09 48.448 233.525 48.448C229.983 48.448 226.826 47.7013 224.053 46.208C221.322 44.7147 219.189 42.5813 217.653 39.808C216.117 37.0347 215.349 33.7707 215.349 30.016ZM279.888 11.776C283.984 11.776 287.226 13.1627 289.616 15.936C292.048 18.6667 293.264 22.3787 293.264 27.072V48H280.72V28.736C280.72 26.688 280.186 25.088 279.12 23.936C278.053 22.7413 276.624 22.144 274.832 22.144C272.954 22.144 271.482 22.7413 270.416 23.936C269.349 25.088 268.816 26.688 268.816 28.736V48H256.272V0.639999H268.816V17.216C269.925 15.5947 271.418 14.2933 273.296 13.312C275.216 12.288 277.413 11.776 279.888 11.776ZM334.451 29.632C334.451 30.6133 334.387 31.5947 334.259 32.576H310.515C310.643 34.5387 311.176 36.0107 312.115 36.992C313.096 37.9307 314.333 38.4 315.827 38.4C317.917 38.4 319.411 37.4613 320.307 35.584H333.683C333.128 38.0587 332.04 40.2773 330.419 42.24C328.84 44.16 326.835 45.6747 324.403 46.784C321.971 47.8933 319.283 48.448 316.339 48.448C312.797 48.448 309.64 47.7013 306.867 46.208C304.136 44.7147 301.981 42.5813 300.403 39.808C298.867 37.0347 298.099 33.7707 298.099 30.016C298.099 26.2613 298.867 23.0187 300.403 20.288C301.939 17.5147 304.072 15.3813 306.803 13.888C309.576 12.3947 312.755 11.648 316.339 11.648C319.88 11.648 323.016 12.3733 325.747 13.824C328.477 15.2747 330.611 17.3653 332.147 20.096C333.683 22.784 334.451 25.9627 334.451 29.632ZM321.651 26.496C321.651 24.96 321.139 23.7653 320.115 22.912C319.091 22.016 317.811 21.568 316.275 21.568C314.739 21.568 313.48 21.9947 312.499 22.848C311.517 23.6587 310.877 24.8747 310.579 26.496H321.651ZM352.128 18.432C353.536 16.384 355.243 14.7627 357.248 13.568C359.253 12.3733 361.408 11.776 363.712 11.776V25.152H360.192C357.461 25.152 355.435 25.6853 354.112 26.752C352.789 27.8187 352.128 29.6747 352.128 32.32V48H339.584V12.096H352.128V18.432Z" fill="#D4C2FF"/>
</svg>
